<svg width="10" height="10" viewBox="0 0 10 10" fill="none" xmlns="http://www.w3.org/2000/svg">
<path d="M3.81374 2.25341C4.34151 1.30664 4.60539 0.833252 4.99992 0.833252C5.39444 0.833252 5.65833 1.30664 6.1861 2.25341L6.32264 2.49835C6.47262 2.76739 6.54761 2.90191 6.66453 2.99067C6.78145 3.07943 6.92706 3.11238 7.2183 3.17827L7.48344 3.23826C8.50831 3.47015 9.02075 3.58609 9.14266 3.97814C9.26458 4.37019 8.91523 4.7787 8.21655 5.59572L8.03579 5.80709C7.83724 6.03927 7.73797 6.15535 7.69331 6.29897C7.64865 6.44258 7.66366 6.59747 7.69368 6.90723L7.721 7.18925C7.82664 8.27934 7.87945 8.82438 7.56027 9.06668C7.2411 9.30898 6.7613 9.08806 5.80172 8.64624L5.55347 8.53193C5.28078 8.40638 5.14444 8.34361 4.99992 8.34361C4.8554 8.34361 4.71905 8.40638 4.44637 8.53193L4.19812 8.64624C3.23853 9.08806 2.75874 9.30897 2.43956 9.06668C2.12039 8.82438 2.1732 8.27934 2.27883 7.18925L2.30616 6.90723C2.33618 6.59747 2.35119 6.44258 2.30653 6.29897C2.26187 6.15535 2.1626 6.03927 1.96405 5.8071L1.78329 5.59572C1.08461 4.7787 0.735262 4.37019 0.857177 3.97814C0.979093 3.58609 1.49153 3.47015 2.51639 3.23826L2.78154 3.17827C3.07277 3.11238 3.21839 3.07943 3.33531 2.99067C3.45223 2.90191 3.52722 2.76739 3.6772 2.49835L3.81374 2.25341Z" fill="#FFB006"/>
</svg>
