<svg width="19" height="24" viewBox="0 0 19 24" fill="none" xmlns="http://www.w3.org/2000/svg">
<path d="M18.3112 19.8643C18.2578 16.6026 14.9229 15.6389 12.4879 14.9353C12.2038 14.8532 11.9305 14.7742 11.6745 14.6954V13.3498C12.1723 13.0378 12.6085 12.6362 12.9604 12.1678H14.4437C15.1696 12.1678 15.7602 11.5772 15.7602 10.8513V9.25776C15.8482 9.05263 15.8971 8.82688 15.8971 8.58983V8.09422C15.8971 7.85741 15.8482 7.6318 15.7602 7.42681V6.60471C15.7602 2.96289 12.7974 0 9.15561 0C5.51454 0 2.55235 2.96289 2.55235 6.60476V7.40333C2.55235 7.40961 2.55306 7.41565 2.55329 7.42189C2.46395 7.62823 2.41417 7.85548 2.41417 8.09427V8.58988C2.41417 9.52677 3.17579 10.289 4.11194 10.289H4.49931C4.76763 11.5756 5.55752 12.673 6.63673 13.3496V14.6954C6.38065 14.7742 6.10746 14.8532 5.82335 14.9353C3.38828 15.6389 0.0533908 16.6026 4.68494e-05 19.8643C-2.57515e-08 19.8669 0 19.8694 0 19.872V23.5312C0 23.7901 0.209907 24 0.468752 24H1.85851C2.11735 24 2.32726 23.7901 2.32726 23.5312C2.32726 23.2724 2.11735 23.0625 1.85851 23.0625H0.937457V19.8759C0.957191 18.7379 1.47994 17.8848 2.58249 17.1913C3.31004 16.7336 4.1995 16.4076 5.07625 16.1348L6.20881 18.3414C6.33504 18.5874 6.65824 18.6709 6.88793 18.516L7.39292 18.1753L7.82647 19.8049L7.08364 23.0625H6.06776C5.80891 23.0625 5.59901 23.2723 5.59901 23.5312C5.59901 23.7901 5.80891 24 6.06776 24H17.8425C18.1013 24 18.3112 23.7901 18.3112 23.5312V19.8719C18.3112 19.8694 18.3112 19.8669 18.3112 19.8643ZM12.2276 15.8359C12.2585 15.8448 12.2899 15.8539 12.321 15.8629L11.5107 17.4433L9.99426 16.4207L11.2792 15.554C11.5777 15.648 11.8951 15.7398 12.2276 15.8359ZM9.15594 16.9862L10.0959 17.62L9.64162 19.3275H8.66961L8.21549 17.6205L9.15594 16.9862ZM9.15585 15.8554L7.57419 14.7888V13.802C8.06923 13.9771 8.60132 14.0732 9.15557 14.0732C9.70977 14.0732 10.2419 13.9774 10.7369 13.8024V14.7888L9.15585 15.8554ZM12.9745 6.6905C12.9681 6.68642 12.9617 6.68234 12.9553 6.67826C11.9934 6.06598 11.1627 5.53718 9.86109 5.9096C9.84899 5.91307 9.83699 5.91701 9.82523 5.92141C9.54927 6.02505 9.29835 6.12167 9.05563 6.21509C7.5733 6.7857 6.76395 7.09732 5.33669 7.0572V6.68182C5.33669 4.576 7.04984 2.86281 9.15557 2.86281C11.2613 2.86281 12.9744 4.576 12.9744 6.68182V6.6905H12.9745ZM14.8227 10.8513C14.8227 11.0603 14.6527 11.2303 14.4437 11.2303H13.5096C13.6415 10.9312 13.7437 10.6163 13.812 10.289H14.1993C14.4194 10.289 14.6296 10.2464 14.8227 10.1698V10.8513H14.8227ZM14.9596 8.58983C14.9596 9.00979 14.6185 9.35146 14.1993 9.35146H13.9116C13.9117 9.33983 13.912 7.3339 13.912 7.3339H14.1993C14.6185 7.3339 14.9596 7.67497 14.9596 8.09422V8.58983H14.9596ZM4.11194 9.35151C3.69273 9.35151 3.35167 9.00983 3.35167 8.58988V8.09427C3.35167 7.67501 3.69269 7.33395 4.11194 7.33395H4.39924C4.39924 7.33395 4.39961 9.33988 4.3997 9.35151H4.11194ZM4.408 6.3964H4.11189C3.89275 6.3964 3.68345 6.43859 3.49098 6.51453C3.5394 3.43108 6.06166 0.937504 9.15561 0.937504C12.2505 0.937504 14.7734 3.43136 14.8215 6.51504C14.6287 6.43878 14.4189 6.3964 14.1993 6.3964H13.9032C13.7551 3.90602 11.6824 1.9253 9.15561 1.9253C6.62876 1.9253 4.55613 3.90606 4.408 6.3964ZM5.36491 9.77268C5.36486 9.77221 5.36477 9.77174 5.36472 9.77127C5.34696 9.62207 5.33674 9.47057 5.33674 9.31668V7.99466C6.94048 8.03375 7.89716 7.66569 9.39243 7.09006C9.62793 6.9994 9.87135 6.9057 10.1365 6.806C11.022 6.55882 11.5315 6.88325 12.4518 7.46914C12.6115 7.57081 12.7867 7.68223 12.9745 7.79666V9.31668C12.9745 10.0138 12.7859 10.6672 12.4583 11.2303H9.15561C8.89677 11.2303 8.68686 11.4402 8.68686 11.6991C8.68686 11.958 8.89677 12.1678 9.15561 12.1678H11.6927C11.0176 12.7693 10.1287 13.1357 9.15561 13.1357C7.20425 13.1356 5.59108 11.6641 5.36491 9.77268ZM6.80164 17.4433L5.99041 15.8628C6.02145 15.8539 6.05276 15.8448 6.0836 15.8359C6.41613 15.7398 6.73357 15.6479 7.03217 15.554L8.31758 16.4208L6.80164 17.4433ZM8.04523 23.0625L8.68316 20.265H9.62821L10.2671 23.0625H8.04523ZM17.3737 23.0625H11.2288L10.4848 19.8048L10.9185 18.1747L11.4247 18.516C11.6545 18.6709 11.9777 18.5874 12.1039 18.3413L13.2352 16.1349C14.1119 16.4077 15.0013 16.7337 15.7288 17.1913C16.8313 17.8848 17.3541 18.7379 17.3738 19.8759V23.0625H17.3737Z" fill="black"/>
<path d="M15.5225 20.7183H13.1602C12.9013 20.7183 12.6914 20.9281 12.6914 21.187C12.6914 21.4459 12.9013 21.6558 13.1602 21.6558H15.5225C15.7814 21.6558 15.9913 21.4459 15.9913 21.187C15.9913 20.9281 15.7814 20.7183 15.5225 20.7183Z" fill="black"/>
<path d="M3.96094 23.0625C3.70209 23.0625 3.49219 23.2724 3.49219 23.5312C3.49219 23.7901 3.70209 24 3.96094 24H3.96225C4.22109 24 4.4303 23.7901 4.4303 23.5312C4.4303 23.2724 4.21978 23.0625 3.96094 23.0625Z" fill="black"/>
</svg>
