<svg width="482" height="469" viewBox="0 0 482 469" fill="none" xmlns="http://www.w3.org/2000/svg">
<rect width="482" height="469" fill="#926B3F"/>
<path d="M198.431 224.906L198.18 300.396L273.67 300.646L273.92 225.156L198.431 224.906Z" fill="white"/>
<path d="M349.936 74.4994L349.437 225.458L273.947 225.198L274.207 149.708L198.717 149.448C157.06 149.318 123.119 183.02 122.989 224.678L122.728 300.168L198.219 300.428L197.958 375.918L47 375.419L47.4985 224.461C47.7802 141.06 115.576 73.7191 198.977 74.0009L349.936 74.4994Z" fill="white"/>
<path d="M304.829 376.287C329.249 376.287 349.044 356.491 349.044 332.072C349.044 307.653 329.249 287.857 304.829 287.857C280.41 287.857 260.615 307.653 260.615 332.072C260.615 356.491 280.41 376.287 304.829 376.287Z" fill="white"/>
</svg>
