<svg width="220" height="31" viewBox="0 0 220 31" fill="none" xmlns="http://www.w3.org/2000/svg">
<path d="M15.0554 15.0032L15.0305 22.5086L22.5358 22.5334L22.5607 15.0281L15.0554 15.0032Z" fill="#30261E"/>
<path d="M30.1184 0.0496516L30.0689 15.0582L22.5635 15.0324L22.5894 7.52701L15.084 7.50114C10.9424 7.48821 7.56785 10.839 7.55493 14.9807L7.52907 22.486L15.0344 22.5119L15.0086 30.0172L0 29.9677L0.0495608 14.9591C0.0775739 6.66722 6.81796 -0.0279255 15.1099 8.75874e-05L30.1184 0.0496516Z" fill="#30261E"/>
<path d="M25.6339 30.0539C28.0617 30.0539 30.0299 28.0858 30.0299 25.658C30.0299 23.2302 28.0617 21.2621 25.6339 21.2621C23.2062 21.2621 21.238 23.2302 21.238 25.658C21.238 28.0858 23.2062 30.0539 25.6339 30.0539Z" fill="#30261E"/>
<path d="M48.7213 28.2653C44.1983 28.2653 40.3002 26.6772 38.197 22.5895C36.8201 19.9131 36.6714 16.808 36.6714 14.0325C36.6714 6.97968 39.7528 3.15265 44.013 1.68304C48.8851 0.00224996 59.2866 0.366426 60.0343 10.268H53.559C53.2961 8.82424 52.7272 7.77697 51.8545 7.12405C50.1866 5.87639 47.7172 5.83545 45.9243 6.89779C43.6186 8.26397 43.1101 11.354 43.1101 14.0325C43.1101 16.2628 43.1747 19.2537 44.8598 21.2621C45.3878 21.8891 45.9825 22.3438 46.6484 22.6261C48.8657 23.5678 52.975 23.2445 53.5568 18.9262H60.0322C59.5452 25.4834 55.2678 28.2632 48.717 28.2632L48.7213 28.2653Z" fill="#6C574D"/>
<path d="M75.8121 23.0506C78.1113 23.0506 79.9731 22.0442 81.0936 19.7558C81.9513 18.006 81.9685 15.8081 81.9685 14.0325C81.9685 12.0242 81.6754 10.449 81.0936 9.30688C79.9839 7.13694 78.1372 6.14356 75.8121 6.14356C73.487 6.14356 71.6187 7.1391 70.5133 9.30688C69.9293 10.449 69.6384 12.0242 69.6384 14.0325C69.6384 15.8641 69.66 18.0104 70.5133 19.7558C71.6274 22.0313 73.5495 23.0506 75.8121 23.0506ZM75.8121 28.2653C70.4939 28.2653 66.1411 25.9575 64.1974 20.9603C63.2837 18.6159 63.1997 16.2929 63.1997 14.0325C63.1997 11.772 63.5316 9.72493 64.1974 8.07431C66.1605 3.20433 70.5844 0.928802 75.8121 0.928802C79.0767 0.928802 82.2314 1.82738 84.6707 4.01671C87.4893 6.54867 88.446 10.2443 88.446 14.0325C88.446 16.3403 88.3598 18.6223 87.4397 20.9603C85.4766 25.951 81.1561 28.2653 75.8142 28.2653H75.8121Z" fill="#6C574D"/>
<path d="M93.0185 27.7762V1.42012H98.703L109.585 17.2152V1.42012H115.985V27.7762H110.091L99.2288 11.9811V27.7762H93.0164H93.0185Z" fill="#6C574D"/>
<path d="M121.635 27.7762V1.42012H140.462V6.37198H127.867V11.869H139.333V16.5752H127.867V22.8265H140.462V27.7783H121.635V27.7762Z" fill="#6C574D"/>
<path d="M142.983 27.7762L151.7 14.0153L143.36 1.42012H150.288L155.766 9.70339L161.282 1.42012H168.04L159.757 13.9398L168.417 27.7762H161.433L155.634 18.2323L149.836 27.7762H142.983Z" fill="#6C574D"/>
<path d="M182.801 28.2653C175.89 28.2653 171.505 24.5891 171.505 17.2519V1.41798H177.718V16.5925C177.718 21.5357 179.739 23.0506 182.801 23.0506C185.863 23.0506 187.884 21.5594 187.884 16.6119V1.42013H194.097V17.254C194.097 24.587 189.821 28.2675 182.801 28.2675V28.2653Z" fill="#6C574D"/>
<path d="M203.067 27.287C199.874 25.9747 198.242 23.5053 198.143 20.3398H204.356C204.884 22.7058 206.666 23.2381 209.062 23.2381C211.299 23.2381 213.749 22.8437 213.749 20.6027C213.749 18.9887 212.458 18.2711 210.915 17.7604C209.967 17.448 208.775 17.1571 207.347 16.8575C204.545 16.2671 201.386 15.2048 199.891 12.7633C198.628 10.7033 198.393 6.90856 200.126 4.52744C202.078 1.8468 205.715 0.930984 209.06 0.930984C212.404 0.930984 216.098 1.64424 218.002 4.45202C218.767 5.58116 219.207 6.92364 219.321 8.4816H213.109C212.714 6.41725 211.172 5.95827 209.062 5.95827C207.099 5.95827 205.108 6.46034 205.108 8.42342C205.108 9.36509 205.59 10.0805 206.558 10.5697C207.523 11.0588 208.987 11.4984 210.945 11.8884C212.35 12.1643 213.609 12.5004 214.721 12.8947C215.83 13.2912 216.779 13.8041 217.563 14.4376C219.345 15.8771 220 17.8035 220 20.0941C220 23.3156 218.328 25.9209 214.983 27.2763C211.585 28.6532 206.138 28.5476 203.067 27.2849V27.287Z" fill="#6C574D"/>
</svg>
