<svg width="172" height="24" viewBox="0 0 172 24" fill="none" xmlns="http://www.w3.org/2000/svg">
<path d="M11.7707 11.7299L11.7512 17.5977L17.619 17.6171L17.6385 11.7493L11.7707 11.7299Z" fill="#926B3F"/>
<path d="M23.5471 0.0388185L23.5084 11.7728L17.6405 11.7526L17.6608 5.88475L11.7929 5.86453C8.55493 5.85442 5.91668 8.47414 5.90657 11.7121L5.88636 17.58L11.7542 17.6002L11.734 23.468L0 23.4293L0.0387475 11.6953C0.0606487 5.21255 5.33041 -0.0218327 11.8131 6.84774e-05L23.5471 0.0388185Z" fill="#926B3F"/>
<path d="M20.041 23.4966C21.9391 23.4966 23.4778 21.9579 23.4778 20.0598C23.4778 18.1618 21.9391 16.623 20.041 16.623C18.143 16.623 16.6042 18.1618 16.6042 20.0598C16.6042 21.9579 18.143 23.4966 20.041 23.4966Z" fill="#926B3F"/>
<path d="M38.0913 22.0984C34.5551 22.0984 31.5075 20.8568 29.8632 17.6609C28.7867 15.5685 28.6704 13.1408 28.6704 10.9709C28.6704 5.45689 31.0795 2.46485 34.4102 1.31588C38.2193 0.00181484 46.3514 0.286534 46.936 8.02775H41.8734C41.6679 6.899 41.2232 6.08023 40.5408 5.56977C39.2369 4.59432 37.3062 4.56231 35.9045 5.39287C34.1019 6.46098 33.7043 8.87685 33.7043 10.9709C33.7043 12.7146 33.7548 15.053 35.0723 16.6231C35.485 17.1134 35.95 17.4688 36.4706 17.6895C38.2042 18.4257 41.4169 18.173 41.8718 14.7969H46.9343C46.5536 19.9235 43.2094 22.0967 38.0879 22.0967L38.0913 22.0984Z" fill="#926B3F"/>
<path d="M59.2712 18.0217C61.0688 18.0217 62.5244 17.235 63.4004 15.4458C64.0709 14.0779 64.0844 12.3595 64.0844 10.9713C64.0844 9.40111 63.8553 8.16959 63.4004 7.2767C62.5328 5.5802 61.089 4.80355 59.2712 4.80355C57.4534 4.80355 55.9928 5.58188 55.1285 7.2767C54.672 8.16959 54.4445 9.40111 54.4445 10.9713C54.4445 12.4033 54.4614 14.0812 55.1285 15.4458C55.9995 17.2249 57.5023 18.0217 59.2712 18.0217ZM59.2712 22.0987C55.1134 22.0987 51.7103 20.2944 50.1907 16.3876C49.4763 14.5546 49.4106 12.7385 49.4106 10.9713C49.4106 9.204 49.6701 7.60353 50.1907 6.31304C51.7254 2.50561 55.1841 0.726562 59.2712 0.726562C61.8235 0.726562 64.29 1.42909 66.197 3.14075C68.4006 5.12028 69.1486 8.00955 69.1486 10.9713C69.1486 12.7756 69.0813 14.5597 68.3619 16.3876C66.8271 20.2894 63.4493 22.0987 59.2729 22.0987H59.2712Z" fill="#926B3F"/>
<path d="M72.7236 21.716V1.11035H77.1679L85.6756 13.4592V1.11035H90.6792V21.716H86.0715L77.5789 9.36709V21.716H72.7219H72.7236Z" fill="#926B3F"/>
<path d="M95.0967 21.716V1.11035H109.816V4.98181H99.9688V9.27949H108.933V12.9589H99.9688V17.8462H109.816V21.7177H95.0967V21.716Z" fill="#926B3F"/>
<path d="M111.787 21.716L118.601 10.9575L112.082 1.11035H117.498L121.781 7.58636L126.093 1.11035H131.377L124.901 10.8985L131.671 21.716H126.211L121.678 14.2544L117.144 21.716H111.787Z" fill="#926B3F"/>
<path d="M142.917 22.0986C137.514 22.0986 134.086 19.2245 134.086 13.4881V1.10889H138.943V12.9726C138.943 16.8373 140.523 18.0216 142.917 18.0216C145.311 18.0216 146.891 16.8558 146.891 12.9877V1.11057H151.748V13.4898C151.748 19.2228 148.406 22.1003 142.917 22.1003V22.0986Z" fill="#926B3F"/>
<path d="M158.762 21.3337C156.265 20.3077 154.99 18.377 154.912 15.9022H159.769C160.182 17.752 161.575 18.1681 163.448 18.1681C165.197 18.1681 167.113 17.8598 167.113 16.1077C167.113 14.8459 166.104 14.2848 164.897 13.8856C164.156 13.6413 163.224 13.4139 162.107 13.1797C159.917 12.7181 157.448 11.8875 156.278 9.97874C155.291 8.36816 155.108 5.4014 156.462 3.5398C157.988 1.44403 160.832 0.728027 163.447 0.728027C166.061 0.728027 168.949 1.28566 170.438 3.48083C171.036 4.36362 171.38 5.41319 171.469 6.63123H166.612C166.304 5.01729 165.098 4.65845 163.448 4.65845C161.914 4.65845 160.357 5.05098 160.357 6.58574C160.357 7.32196 160.734 7.88129 161.491 8.26371C162.246 8.64614 163.39 8.98982 164.921 9.29475C166.019 9.5104 167.003 9.77321 167.873 10.0815C168.74 10.3915 169.481 10.7925 170.095 11.2878C171.488 12.4131 172 13.9193 172 15.7101C172 18.2287 170.693 20.2656 168.078 21.3252C165.421 22.4018 161.162 22.3192 158.762 21.332V21.3337Z" fill="#926B3F"/>
</svg>
